<svg width="478" height="500" viewBox="0 0 478 500" fill="none" xmlns="http://www.w3.org/2000/svg">
<path d="M477.723 1.49189e-05C477.723 31.3677 471.545 62.4283 459.541 91.4083C447.537 120.388 429.942 146.72 407.762 168.901C385.582 191.081 359.25 208.675 330.27 220.679C301.29 232.683 270.229 238.861 238.862 238.861C207.494 238.861 176.433 232.683 147.453 220.679C118.473 208.675 92.1414 191.081 69.9611 168.901C47.7808 146.72 30.1864 120.388 18.1825 91.4083C6.17857 62.4283 0.000241398 31.3677 0.000244141 0L238.862 238.861L477.723 1.49189e-05Z" fill="white"/>
<path d="M-9.15527e-05 499.723C-8.88105e-05 468.355 6.17826 437.295 18.1822 408.315C30.1861 379.335 47.7805 353.003 69.9608 330.822C92.1411 308.642 118.473 291.048 147.453 279.044C176.433 267.04 207.494 260.861 238.861 260.861C270.229 260.861 301.29 267.04 330.27 279.044C359.25 291.048 385.581 308.642 407.762 330.822C429.942 353.003 447.537 379.335 459.54 408.315C471.544 437.295 477.723 468.355 477.723 499.723L238.861 260.861L-9.15527e-05 499.723Z" fill="white"/>
</svg>
